<mxfile host="65bd71144e">
    <diagram id="S8z7VlIsHLkRVv9DtLN1" name="Page-1">
        <mxGraphModel dx="1330" dy="824" grid="1" gridSize="10" guides="1" tooltips="1" connect="1" arrows="1" fold="1" page="1" pageScale="1" pageWidth="850" pageHeight="1100" background="none" math="0" shadow="0">
            <root>
                <mxCell id="0"/>
                <mxCell id="1" parent="0"/>
                <mxCell id="4" style="edgeStyle=none;html=1;exitX=1;exitY=0.5;exitDx=0;exitDy=0;endArrow=none;endFill=0;fillColor=#f5f5f5;strokeColor=#666666;" parent="1" source="2" target="3" edge="1">
                    <mxGeometry relative="1" as="geometry"/>
                </mxCell>
                <mxCell id="2" value="Usuario" style="rounded=0;whiteSpace=wrap;html=1;fillColor=#f5f5f5;strokeColor=#666666;fontColor=#000000;" parent="1" vertex="1">
                    <mxGeometry x="240" y="275" width="80" height="30" as="geometry"/>
                </mxCell>
                <mxCell id="3" value="Premio&lt;hr&gt;- Nombre&lt;br&gt;- DescripciÃ³n&lt;br&gt;- ProgresoMax" style="rounded=0;whiteSpace=wrap;html=1;fillColor=#eeeeee;strokeColor=#36393d;fontColor=#000000;" parent="1" vertex="1">
                    <mxGeometry x="510" y="248.75" width="90" height="82.5" as="geometry"/>
                </mxCell>
                <mxCell id="6" style="edgeStyle=none;html=1;exitX=0.5;exitY=1;exitDx=0;exitDy=0;fontFamily=Helvetica;fontSize=12;fontColor=#333333;endArrow=none;endFill=0;fillColor=#f5f5f5;strokeColor=#666666;dashed=1;" parent="1" source="5" edge="1">
                    <mxGeometry relative="1" as="geometry">
                        <mxPoint x="440" y="290" as="targetPoint"/>
                    </mxGeometry>
                </mxCell>
                <mxCell id="5" value="Info&lt;br&gt;&lt;hr&gt;- Progreso" style="rounded=0;whiteSpace=wrap;html=1;fontColor=#000000;fillColor=#f5f5f5;strokeColor=#666666;" parent="1" vertex="1">
                    <mxGeometry x="340" y="180" width="75" height="60" as="geometry"/>
                </mxCell>
                <mxCell id="7" value="0..*" style="text;html=1;align=center;verticalAlign=middle;resizable=0;points=[];autosize=1;strokeColor=none;fillColor=none;fontSize=12;fontFamily=Helvetica;fontColor=#000000;" parent="1" vertex="1">
                    <mxGeometry x="320" y="270" width="30" height="20" as="geometry"/>
                </mxCell>
                <mxCell id="8" value="0..*" style="text;html=1;align=center;verticalAlign=middle;resizable=0;points=[];autosize=1;strokeColor=none;fillColor=none;fontSize=12;fontFamily=Helvetica;fontColor=#000000;" parent="1" vertex="1">
                    <mxGeometry x="480" y="270" width="30" height="20" as="geometry"/>
                </mxCell>
                <mxCell id="9" value="R1" style="text;html=1;align=center;verticalAlign=middle;resizable=0;points=[];autosize=1;strokeColor=none;fillColor=none;fontColor=#000000;" parent="1" vertex="1">
                    <mxGeometry x="410" y="300" width="30" height="20" as="geometry"/>
                </mxCell>
            </root>
        </mxGraphModel>
    </diagram>
</mxfile>